# xmcd
#
# Track frame offsets: 
#        150
#        18338
#        38255
#        59563
#        80597
#        100946
#        118010
#        133858
#        158632
#        181347
#        203875
#        221072
#
# Disc length: 3226 seconds
#
# Revision: 0
# Processed by: cddbd v1.5.2PL0 Copyright (c) Steve Scherf et al.
# Submitted via: ExactAudioCopyFreeDBPlugin 1.0
#
DISCID=a20c980c
DTITLE=群星 - stereo 汽车 HI-FI 独唱篇
DYEAR=2008
DGENRE=Acid
TTITLE0=草原夜色美
TTITLE1=丁香花
TTITLE2=城里的月光
TTITLE3=有你同行(原创)
TTITLE4=My memory
TTITLE5=无尽的思念(原创词)
TTITLE6=魂萦旧梦
TTITLE7=风再起时
TTITLE8=矜持
TTITLE9=飞回草原
TTITLE10=甜蜜蜜
TTITLE11=耶利亚
EXTD=
EXTT0=
EXTT1=
EXTT2=
EXTT3=
EXTT4=
EXTT5=
EXTT6=
EXTT7=
EXTT8=
EXTT9=
EXTT10=
EXTT11=
PLAYORDER=
